<?xml version="1.0" standalone="no"?>
<svg viewBox="0 0 200 200" xmlns="http://www.w3.org/2000/svg">
  <path fill="#FF0066" d="M36,-62.8C46.2,-56.3,54,-46,60.3,-34.9C66.7,-23.8,71.6,-11.9,75.5,2.2C79.4,16.4,82.2,32.7,75.4,43C68.5,53.2,52,57.4,37.9,64.5C23.7,71.7,11.8,81.9,-1.3,84.2C-14.4,86.4,-28.9,80.7,-39.4,71.5C-50,62.2,-56.6,49.4,-64.7,36.9C-72.8,24.3,-82.3,12.2,-83,-0.4C-83.6,-12.9,-75.5,-25.9,-67.2,-38.1C-59,-50.4,-50.7,-61.9,-39.5,-67.9C-28.3,-73.8,-14.1,-74.3,-0.6,-73.1C12.8,-72,25.7,-69.3,36,-62.8Z" transform="translate(100 100)" />
</svg>
